<svg viewBox="0 0 202.52 150" version="1.1" xmlns="http://www.w3.org/2000/svg" preserveAspectRatio="xMidYMid meet">
  <path d="m53.406 10.557-5.0488 3.3223 42.061 63.951c-1.0569 1.2973-1.8786 2.7896-2.418 4.4121h-70.115v6.0449h69.498c0.81169 6.9508 6.713 12.344 13.879 12.344 7.1658 0 13.064-5.393 13.875-12.344h69.5v-6.0449h-70.117c-0.53924-1.6225-1.3594-3.1148-2.416-4.4121l42.061-63.951-5.0508-3.3223-41.777 63.518c-1.8391-0.89026-3.894-1.4043-6.0742-1.4043-2.1814 0-4.238 0.51505-6.0781 1.4062z" fill="#b5d3e2"/>
  <path d="m49.875 0c-7.0953 0-12.848 5.7519-12.848 12.846 0 3.7198 1.5899 7.0604 4.1152 9.4062l-20.535 46.447c-1.0469-0.19686-2.1225-0.31055-3.2266-0.31055-9.5991 0-17.381 7.783-17.381 17.381 0 9.5997 7.7817 17.381 17.381 17.381 5.3445 0 10.122-2.4174 13.311-6.2129l54.49 29.096c-0.83369 2.0328-1.3008 4.2547-1.3008 6.5879 0 9.5997 7.7811 17.379 17.379 17.379 9.5997 0 17.381-7.7792 17.381-17.379 0-2.3333-0.46899-4.5551-1.3027-6.5879l54.492-29.098c3.1877 3.796 7.963 6.2148 13.309 6.2148 9.5997 0 17.381-7.7812 17.381-17.381 0-9.5978-7.7812-17.381-17.381-17.381-1.1042 0-2.1796 0.11369-3.2266 0.31055l-20.535-46.447c2.5256-2.3459 4.1152-5.6861 4.1152-9.4062 0-7.0938-5.7519-12.846-12.846-12.846-5.9165 0-10.885 4.0056-12.377 9.4473h-78.018c-1.4922-5.4418-6.4613-9.4473-12.377-9.4473zm13.406 15.492h75.957l-24.789 11.568c-3.1173-3.8293-7.8647-6.2793-13.188-6.2793-5.3228 0-10.072 2.45-13.189 6.2793zm-3.498 5.5312 24.967 12.77c-0.30913 1.2822-0.49218 2.6131-0.49218 3.9902 0 1.6082 0.23907 3.1582 0.65625 4.6328l-54.004 32.453c-1.2919-1.6017-2.8674-2.9575-4.6426-4.0176l20.174-45.635c1.0944 0.30322 2.2426 0.47851 3.4336 0.47851 3.9887 0 7.552-1.819 9.9082-4.6719zm82.953 0c2.3561 2.8528 5.9208 4.6719 9.9102 4.6719 1.1903 0 2.3377-0.17551 3.4316-0.47851l20.176 45.635c-1.7754 1.0602-3.3507 2.4157-4.6426 4.0176l-54.004-32.453c0.41706-1.4746 0.6543-3.0247 0.6543-4.6328 0-1.377-0.18122-2.7081-0.49024-3.9902zm-54.041 28.186c2.2766 2.5025 5.2868 4.3206 8.6894 5.1211v61.355c-3.5044 0.80386-6.605 2.6644-8.9492 5.2324l-54.734-29.225c0.67236-1.8515 1.0605-3.8399 1.0605-5.9238 0-1.8275-0.28752-3.5875-0.81055-5.2422zm25.131 2e-3 54.742 31.316c-0.52293 1.6547-0.80859 3.4147-0.80859 5.2422 0 2.0838 0.38643 4.0724 1.0586 5.9238l-54.734 29.225c-2.3448-2.5682-5.4441-4.4287-8.9492-5.2324v-61.354c3.4038-0.79961 6.4143-2.6181 8.6914-5.1211z" fill="#8cb3cf"/>
</svg>
