<?xml version="1.0" encoding="UTF-8"?>
<svg width="200px" height="200px" viewBox="0 0 200 200" version="1.1" xmlns="http://www.w3.org/2000/svg" xmlns:xlink="http://www.w3.org/1999/xlink">
    <title>画板</title>
    <g id="画板" stroke="none" stroke-width="1" fill="none" fill-rule="evenodd">
        <g id="编组备份-4" transform="translate(10.000000, 73.000000)" fill="#000000">
            <polygon id="Fill-1" points="112.289087 0 96.4196104 32.6811883 80.185711 0 71.2869623 0 71.2869623 53.4652217 79.5919607 53.4652217 79.5919607 14.9853346 94.1213298 44.1278603 98.7195587 44.1278603 112.808619 14.9853346 112.808619 53.4652217 121.187836 53.4652217 121.187836 0"></polygon>
            <path d="M58.4278127,42.5697978 L14.2635721,42.5697978 L14.2635721,42.5790411 C14.2022166,42.5765202 14.1417015,42.5697978 14.0786649,42.5697978 C11.7664846,42.5697978 9.89303866,44.4428427 9.89303866,46.7545279 C9.89303866,49.0653729 11.7664846,50.9392581 14.0786649,50.9392581 C14.1417015,50.9392581 14.2022166,50.9325356 14.2635721,50.9300147 L14.2635721,50.9392581 L58.4278127,50.9392581 C60.7391525,50.9392581 62.6125984,49.0653729 62.6125984,46.7545279 C62.6125984,44.4428427 60.7391525,42.5697978 58.4278127,42.5697978" id="Fill-2"></path>
            <path d="M58.4278127,2.70646163 L14.2635721,2.70646163 L14.2635721,2.71570501 C14.2022166,2.71318408 14.1417015,2.70646163 14.0786649,2.70646163 C11.7664846,2.70646163 9.89303866,4.57950651 9.89303866,6.89119178 C9.89303866,9.20203675 11.7664846,11.0759219 14.0786649,11.0759219 C14.1417015,11.0759219 14.2022166,11.0691995 14.2635721,11.0666786 L14.2635721,11.0759219 L58.4278127,11.0759219 C60.7391525,11.0759219 62.6125984,9.20203675 62.6125984,6.89119178 C62.6125984,4.57950651 60.7391525,2.70646163 58.4278127,2.70646163" id="Fill-4"></path>
            <path d="M42.2681014,31.0073379 L42.2681014,30.9880109 C44.4004174,30.7947402 46.071306,29.0048857 46.071306,26.8226078 C46.071306,24.6403298 44.4004174,22.8504753 42.2681014,22.6572047 L42.2681014,22.6378776 L4.37053345,22.6378776 L4.37053345,22.647121 C4.30917789,22.6446001 4.24782232,22.6378776 4.18478578,22.6378776 C1.87344597,22.6378776 0,24.5117628 0,26.8226078 C0,29.134293 1.87344597,31.0073379 4.18478578,31.0073379 C4.24782232,31.0073379 4.30917789,31.0006155 4.37053345,30.9980945 L4.37053345,31.0073379 L42.2681014,31.0073379 Z" id="Fill-6"></path>
            <path d="M154.703857,45.1194581 C145.500522,45.1194581 138.039517,36.8625989 138.039517,26.6772346 C138.039517,16.49103 145.500522,8.23417085 154.703857,8.23417085 C163.907192,8.23417085 171.369037,16.49103 171.369037,26.6772346 C171.369037,31.3938793 169.766228,35.6954121 167.133822,38.9574849 L164.029062,35.4559246 L152.739638,35.4559246 L160.346888,44.0329408 C158.584386,44.7345973 156.684885,45.1194581 154.703857,45.1194581 L154.703857,45.1194581 Z M172.7197,45.2539072 C177.109565,40.4498706 179.817614,33.9005158 179.817614,26.6772346 C179.817614,11.9432871 168.573576,0 154.703857,0 C140.834137,0 129.590099,11.9432871 129.590099,26.6772346 C129.590099,41.4103418 140.834137,53.3536289 154.703857,53.3536289 C158.791146,53.3536289 162.646461,52.3099673 166.057998,50.4705347 L168.713938,53.4653898 L179.994957,53.4653898 L180,53.4611882 L172.7197,45.2539072 Z" id="Fill-8"></path>
        </g>
    </g>
</svg>