<svg id="图层_1" data-name="图层 1" xmlns="http://www.w3.org/2000/svg" viewBox="0 0 1000 1000"><defs><style>.cls-1{fill:#1ec4ca;}</style></defs><path class="cls-1" d="M82.55,676.38C40.29,587.13,30.88,482.21,56.61,384.8s86.54-185.91,170.17-245.74c83.71-60,189.76-88.52,294.14-81.23A458.28,458.28,0,0,1,673.32,97,466,466,0,0,1,757,146.33c26.32,19.48,29.49,57.61,6,80.4h0c-19.53,18.92-50,19.51-70.79,1.94a355,355,0,0,0-180.71-81.19c-83.32-11.06-171.31,5.76-244.67,51.39-73.14,45.52-130.6,117.5-158.6,201.14s-26.35,178.28,7,262.23Z"/><path class="cls-1" d="M168.84,778a18.44,18.44,0,0,1,25.13.75,396.55,396.55,0,0,0,101.08,70.49A385.56,385.56,0,0,0,428.74,885.6c92.28,7,185.33-19.36,257.28-74a369.89,369.89,0,0,0,90.72-98.24,362.58,362.58,0,0,0,48.55-122.68c2.94-10.59,3.33-21.69,4.83-32.52,1.78-10.82,1.84-21.8,1.89-32.76,1.2-21.84-1.07-43.73-4.47-65.13a352,352,0,0,0-44-120.85l95.19-51.71a456.11,456.11,0,0,1,47.18,159.54c2.69,27.58,3.66,55.29.67,82.75-.94,13.75-2,27.45-4.94,41-2.64,13.51-4.28,27.19-8.6,40.3A443.33,443.33,0,0,1,727.39,870.47a439.8,439.8,0,0,1-147,62.28c-52,11.27-105.67,13.73-157.82,6.27a428,428,0,0,1-255.3-135.1,18.26,18.26,0,0,1,1.58-25.9Z"/><circle class="cls-1" cx="105.07" cy="675.13" r="57.63"/><circle class="cls-1" cx="329.34" cy="472.27" r="74.07"/><circle class="cls-1" cx="543.64" cy="614.32" r="91.61"/><circle class="cls-1" cx="854.69" cy="377.24" r="102.94"/><path class="cls-1" d="M95.44,718.64A30.31,30.31,0,0,1,74,666.91L299.26,441.66a30.31,30.31,0,0,1,42.86,42.86L116.87,709.76A30.2,30.2,0,0,1,95.44,718.64Z"/><path class="cls-1" d="M543.63,692.52a30.2,30.2,0,0,1-21-8.42L314.88,485a30.31,30.31,0,1,1,41.93-43.77L564.6,640.33a30.3,30.3,0,0,1-21,52.19Z"/><path class="cls-1" d="M534.37,701.17a30.31,30.31,0,0,1-20.68-52.48L828.56,355.07a30.31,30.31,0,0,1,41.35,44.34L555,693A30.25,30.25,0,0,1,534.37,701.17Z"/></svg>