<svg xmlns="http://www.w3.org/2000/svg" viewBox="149 203 988 357"><defs><style>.cls-1{fill:#fff;}.cls-2{fill:#232221;}.cls-3{fill:#009639;}</style></defs><g><path class="cls-2" d="M567.73,295.24h0a11.09,11.09,0,0,1,11.09,11.09v92.81q0,26.76,10,40T622,452.41q23.38,0,33-13.38t9.64-39.89V306.33a11.09,11.09,0,0,1,11.09-11.09h0a11.09,11.09,0,0,1,11.09,11.09v92.81q0,19.29-4.46,32.9t-12.78,22.54a48.69,48.69,0,0,1-20.49,13,85.46,85.46,0,0,1-27.36,4.1q-31.1,0-48.09-17.35t-17-56.17V306.33A11.09,11.09,0,0,1,567.73,295.24Z"/><path class="cls-2" d="M730.45,342.72h0a10.37,10.37,0,0,1,10.37,10.37v8.68q9.16-12.3,20.25-17.6a53.53,53.53,0,0,1,23.38-5.3q21.21,0,31.46,11.57t10.24,34v72.44a10.49,10.49,0,0,1-10.49,10.49h0a10.49,10.49,0,0,1-10.49-10.49V388.53q0-17.35-6.27-24.47t-19.28-7.11a41.64,41.64,0,0,0-13.86,2.41,34.27,34.27,0,0,0-12.42,7.71,40.21,40.21,0,0,0-9.16,11.21q-3.13,5.9-3.13,15.31v63.28a10.49,10.49,0,0,1-10.49,10.49h0a10.49,10.49,0,0,1-10.49-10.49V353.09A10.37,10.37,0,0,1,730.45,342.72Z"/><path class="cls-2" d="M868.45,295.24h0a11.21,11.21,0,0,1,11.21,11.21v1.93a11.21,11.21,0,0,1-11.21,11.21h0a11.21,11.21,0,0,1-11.21-11.21v-1.93A11.21,11.21,0,0,1,868.45,295.24Zm0,47.49h0a10.49,10.49,0,0,1,10.49,10.49V456.87a10.49,10.49,0,0,1-10.49,10.49h0A10.49,10.49,0,0,1,858,456.87V353.21A10.49,10.49,0,0,1,868.45,342.72Z"/><path class="cls-2" d="M919,359.36H908a8.32,8.32,0,0,1-8.32-8.32h0a8.32,8.32,0,0,1,8.32-8.32h11v-23.5a10.49,10.49,0,0,1,10.49-10.49h0a10.49,10.49,0,0,1,10.49,10.49v23.5h24.71A8.32,8.32,0,0,1,973,351h0a8.32,8.32,0,0,1-8.32,8.32H939.92v73q0,9.16,4.1,14.7t12.53,5.55a70,70,0,0,0,8.78-1,8.54,8.54,0,0,1,9.69,6.59h0a8.58,8.58,0,0,1-6.54,10.26l-2.17.44A72.17,72.17,0,0,1,952.94,470q-10.61,0-17.12-3.13A25.43,25.43,0,0,1,925.46,458a34.65,34.65,0,0,1-5.18-13.74A105.37,105.37,0,0,1,919,426.86Z"/><path class="cls-3" d="M452.69,284.92,317.13,206.65a21.46,21.46,0,0,0-21.4,0L160.17,284.92a21.46,21.46,0,0,0-10.69,18.53V460a21.45,21.45,0,0,0,10.7,18.53l135.56,78.26a21.46,21.46,0,0,0,21.4,0l135.56-78.26A21.45,21.45,0,0,0,463.39,460V303.45A21.45,21.45,0,0,0,452.69,284.92Z"/><path class="cls-1" d="M384.85,441.92c0,9.29-8.21,17-19.84,17-8.33,0-17.94-3.36-23.81-10.65l-78.27-93.67v87.34a17,17,0,0,1-17,17h-1a17,17,0,0,1-17-17l0-120.42c0-9.29,8.21-17,19.84-17,8.33,0,17.94,3.36,23.81,10.65l78.27,93.67V321.51a17,17,0,0,1,17-17h1a17,17,0,0,1,17,17Z"/></g></svg>
