<?xml version="1.0" encoding="UTF-8" standalone="no"?>
<!-- Generator: Adobe Illustrator 13.0.0, SVG Export Plug-In . SVG Version: 6.00 Build 14948)  -->

<svg
   xmlns:dc="http://purl.org/dc/elements/1.1/"
   xmlns:cc="http://creativecommons.org/ns#"
   xmlns:rdf="http://www.w3.org/1999/02/22-rdf-syntax-ns#"
   xmlns:svg="http://www.w3.org/2000/svg"
   xmlns="http://www.w3.org/2000/svg"
   xmlns:sodipodi="http://sodipodi.sourceforge.net/DTD/sodipodi-0.dtd"
   xmlns:inkscape="http://www.inkscape.org/namespaces/inkscape"
   version="1.1"
   id="Layer_1"
   x="0px"
   y="0px"
   width="40.686001"
   height="40.686001"
   viewBox="0 0 40.685999 40.686"
   enable-background="new 0 0 158.253 40.686"
   xml:space="preserve"
   sodipodi:docname="logo.svg"
   inkscape:version="0.92.2 2405546, 2018-03-11"><metadata
   id="metadata3880"><rdf:RDF><cc:Work
       rdf:about=""><dc:format>image/svg+xml</dc:format><dc:type
         rdf:resource="http://purl.org/dc/dcmitype/StillImage" /><dc:title></dc:title></cc:Work></rdf:RDF></metadata><defs
   id="defs3878" /><sodipodi:namedview
   pagecolor="#ffffff"
   bordercolor="#666666"
   borderopacity="1"
   objecttolerance="10"
   gridtolerance="10"
   guidetolerance="10"
   inkscape:pageopacity="0"
   inkscape:pageshadow="2"
   inkscape:window-width="1916"
   inkscape:window-height="1048"
   id="namedview3876"
   showgrid="false"
   inkscape:snap-page="true"
   inkscape:zoom="6.5464791"
   inkscape:cx="69.00927"
   inkscape:cy="-3.8796729"
   inkscape:window-x="0"
   inkscape:window-y="14"
   inkscape:window-maximized="0"
   inkscape:current-layer="Layer_1" />





<circle
   cx="17.716999"
   cy="11.560999"
   r="4.402"
   id="circle3857"
   style="fill:#009ddc" />
<path
   d="m 31.069,20.355999 c 0,2.433 -1.969,4.401 -4.403,4.401 -2.427,0 -4.401,-1.97 -4.401,-4.401 0,-2.433 1.975,-4.401 4.401,-4.401 2.435,-0.001 4.403,1.969 4.403,4.401 z"
   id="path3859"
   inkscape:connector-curvature="0"
   style="fill:#009ddc" />
<circle
   cx="17.702"
   cy="29.176001"
   r="4.402"
   id="circle3861"
   style="fill:#009ddc" />
<g
   id="g3865">
	<path
   d="M 20.343,0 C 9.108,0.001 0.001,9.108 0,20.343 0.001,31.577 9.108,40.684 20.343,40.686 31.578,40.684 40.684,31.579 40.686,20.343 40.684,9.108 31.578,0.001 20.343,0 Z M 31.792,31.792 C 28.855,34.726 24.82,36.534 20.342,36.535 15.864,36.534 11.829,34.724 8.892,31.792 5.959,28.855 4.151,24.82 4.15,20.343 4.151,15.865 5.959,11.83 8.893,8.893 11.83,5.959 15.865,4.151 20.343,4.15 c 4.478,10e-4 8.513,1.81 11.45,4.743 2.934,2.938 4.742,6.973 4.743,11.45 -0.002,4.477 -1.81,8.512 -4.744,11.449 z"
   id="path3863"
   inkscape:connector-curvature="0"
   style="fill:#009ddc" />
</g>


</svg>