<svg id="SemeruRuntimes" xmlns="http://www.w3.org/2000/svg" viewBox="0 0 32 32"><defs><linearGradient id="mowig1tk4a" x1="-66.645" y1="-182.5" x2="-58.418" y2="-182.5" gradientTransform="translate(79.458 204.458)" gradientUnits="userSpaceOnUse"><stop offset=".071"/><stop offset=".964" stop-opacity="0"/></linearGradient><linearGradient id="ahawze7n2b" x1="2057.037" y1="-1935.038" x2="2062.733" y2="-1935.038" gradientTransform="matrix(1.978 0 0 .583 -4065.838 1144.613)" gradientUnits="userSpaceOnUse"><stop offset=".096"/><stop offset=".964" stop-opacity="0"/></linearGradient><linearGradient id="y76v2m5qld" x1=".098" y1="31.902" x2="31.702" y2=".298" gradientUnits="userSpaceOnUse"><stop offset=".1" stop-color="#ee5396"/><stop offset=".9" stop-color="#8a3ffc"/></linearGradient><mask id="ozj5xxp58c" x="0" y="0" width="32" height="32" maskUnits="userSpaceOnUse"><path d="M25.5 28h-8a4.491 4.491 0 0 1-1.326-8.784 5.472 5.472 0 0 1 10.652 0A4.491 4.491 0 0 1 25.5 28zm-4-11a3.477 3.477 0 0 0-3.459 3.146l-.08.789-.785.1A2.492 2.492 0 0 0 17.5 26h8a2.492 2.492 0 0 0 .324-4.963l-.785-.1-.08-.789A3.477 3.477 0 0 0 21.5 17z" style="fill:#fff"/><path transform="rotate(-90 17 21.958)" style="fill:url(#mowig1tk4a)" d="M12.666 16.958h8.667v10h-8.667z" id="Gradients_black_" data-name="Gradients (black)"/><path d="M23 28H3a1 1 0 0 1-.861-1.509l8.864-15 1.722 1.018L4.752 26H23z" style="fill:#fff"/><path transform="rotate(121.2 9.061 17)" style="fill:url(#ahawze7n2b)" d="M3.127 14.96h11.869v4.079H3.127z" id="Gradients_black_2" data-name="Gradients (black)"/></mask></defs><g style="mask:url(#ozj5xxp58c)"><path style="fill:url(#y76v2m5qld)" d="M0 0h32v32H0z"/></g><path style="fill:#001d6c" d="M13.025 12 16 6.966 18.975 12h2.323L16 3.034 10.702 12h2.323z"/></svg>