<?xml version="1.0" encoding="UTF-8"?>
<svg xmlns="http://www.w3.org/2000/svg" version="1.1" viewBox="0 0 1000 1000">
  <defs>
    <style>
      .cls-1 {
        fill: #7c297d;
      }

      .cls-2 {
        fill: #f79a23;
      }

      .cls-3 {
        fill: #dd552c;
      }

      .cls-4 {
        fill: #fff;
      }

      .cls-5 {
        fill: #d22128;
      }

      .cls-6 {
        fill: #dce8f2;
      }

      .cls-7 {
        fill: #282662;
      }
    </style>
  </defs>
  <!-- Generator: Adobe Illustrator 28.7.8, SVG Export Plug-In . SVG Version: 1.2.0 Build 200)  -->
  <g>
    <g id="Layer_2">
      <g>
        <path class="cls-7" d="M441.5030518,80.204834c-1.2634277-6.9970703-6.8925781-10.3955078-15.0050049-8.9401855l-17.6801758,3.1630859,4.0257568,22.4638672,17.5930176-3.1630859c8.190918-1.4638672,12.3212891-6.5178223,11.0664062-13.5236816Z"/>
        <path class="cls-7" d="M80.7020264,474.1008301c-9.9859619-.1916504-15.3012695,5.6115723-15.510498,17.2355957l-.2700195,13.7939453,30.4458008.5751953.2526855-13.7939453c.2265625-11.6240234-4.7751465-17.6191406-14.9179688-17.810791Z"/>
        <path class="cls-7" d="M431.7437744,98.0854492l-18.1071777,3.2416992,4.2435303,23.6577148,18.4470215-3.3024902c8.7137451-1.5686035,13.0444336-6.9274902,11.7199707-14.2644043-1.3331299-7.4328613-7.3370361-10.9445801-16.3033447-9.3325195Z"/>
        <polygon class="cls-7" points="842.7532959 748.2700195 819.8275146 741.7260742 832.4449463 761.9243164 842.7532959 748.2700195"/>
        <path class="cls-7" d="M849.0526123,150.9475098C755.9759521,57.8781738,632.0196533,6.6176758,500,6.6176758c-132.0195312,0-255.9758301,51.260498-349.0526123,144.329834C57.8780518,244.0244141,6.6175537,367.9804687,6.6175537,500s51.260498,255.9760742,144.329834,349.0527344c93.0767822,93.0693359,217.0330811,144.3295898,349.0526123,144.3295898,132.0196533,0,255.9759521-51.2602539,349.0526123-144.3295898,93.0693359-93.0766602,144.329834-217.0332031,144.329834-349.0527344s-51.260498-255.9755859-144.329834-349.0524902ZM473.4564209,60.7124023l12.1208496,19.4052734,8.0252686,13.0620117,19.0570068-33.1210938,5.9863281-.0957031-22.3508301,38.6279297.3747559,22.4726562-5.2021484.0786133-.3746338-22.3681641-23.6142578-37.9570312,5.9776611-.1044922ZM426.0101318,66.5939941c10.8398438-1.9519043,19.0219727,2.8493652,20.7125244,12.2429199,1.1850586,6.6572266-1.5162354,12.2514648-7.302124,15.3186035,7.5200195.6711426,12.6435547,5.1325684,13.9680176,12.5566406,1.77771,9.9162598-4.3654785,17.4536133-15.8937988,19.5187988l-23.9104004,4.2871094-10.7180176-59.7763672,23.1437988-4.1477051ZM309.5161133,103.496582c17.8631592-8.3649902,33.9224854-2.7446289,41.7823486,14.0031738,7.8422852,16.7478027,1.8908691,32.6853027-15.97229,41.050293l-17.2183838,8.0864258-25.8188477-55.0622559,17.2271729-8.0776367ZM265.1544189,127.5727539l2.6751709,3.8427734-25.1043701,17.4536133,12.9835205,18.699707,23.256958-16.1640625,2.727417,3.9125977-23.256958,16.1640625,13.5847168,19.5449219,25.8972168-18.0026855,2.727417,3.9299316-30.1756592,20.973877-34.7067871-49.9384766,29.3913574-20.4162598ZM196.0021973,182.1557617c8.7921143-8.5307617,19.6668701-8.7922363,27.7706299-.427002,6.9624023,7.1713867,7.4328613,16.2685547,1.7775879,24.171875l27.9973145,5.1672363-4.4963379,4.3569336-27.5004883-5.1586914-11.6677246,11.3017578,15.8937988,16.3994141-3.7380371,3.6335449-42.3227539-43.6645508,16.2860107-15.7805176ZM159.4567871,221.088623l3.7469482,2.8232422-18.3337402,24.4333496,18.1855469,13.6369629,16.9743652-22.6208496,3.8254395,2.8666992-16.9831543,22.6296387,19.0220947,14.2644043,18.9088135-25.2001953,3.8078613,2.8669434-22.0283203,29.3652344-48.5877686-36.458252,21.4619141-28.6071777ZM84.8410645,349.5900879l54.8181152,6.5092773-19.161499-18.9523926-20.3989258-20.3989258,2.1262207-4.565918,55.654541,4.8884277-40.4055176-37.7219238,2.3439941-5.045166,46.7231445,43.7255859-2.1697998,4.6442871-25.2349854-2.1435547-30.7246094-2.7011719,39.8391113,39.5776367-2.2045898,4.7316895-63.5056152-7.5808105,2.300415-4.967041ZM68.5289307,409.6103516c3.8078613-18.2028809,19.0307617-28.1452637,37.2163086-24.3374023,18.1943359,3.8166504,28.1367188,19.0395508,24.3288574,37.2250977-3.8341064,18.28125-19.0483398,28.2150879-37.2425537,24.4157715-18.1942139-3.8166504-28.1365967-19.0393066-24.3026123-37.3034668ZM60.3205566,490.979248c.2789307-14.3078613,7.7203369-22.4116211,20.4686279-22.1765137,12.7568359.2441406,19.8847656,8.626709,19.614502,22.9433594l-.2612305,14.0466309,20.6340332.3833008-.0871582,5.2106934-60.7260742-1.1586914.3572998-19.2487793ZM289.9354248,861.840332c-.7480469,1.2568359-2.078125,1.9560547-3.4423828,1.9560547-.6953125,0-1.3994141-.1816406-2.0410156-.5625-104.1455078-61.9335938-176.7949219-165.4082031-199.3183594-283.8916016-.4121094-2.1699219,1.0126953-4.2636719,3.1826172-4.6767578,2.1640625-.4121094,4.2646484,1.0126953,4.6767578,3.1826172,22.0957031,116.234375,93.3710938,217.7470703,195.5488281,278.5087891,1.8984375,1.1298828,2.5224609,3.5839844,1.3935547,5.4833984ZM369.9193115,896.175293c-4.0917969,12.9560547-16.078125,17.0976562-22.5175781,19.3222656l-.9785156.3398438c-1.9042969.6650391-3.9033203,1.0048828-5.9296875,1.0048828-4.4941406,0-8.7988281-1.6660156-12.1210938-4.6914062-4.8955078-4.4599609-6.9453125-11.2216797-5.3486328-17.6484375,8.0762939-32.5126953,15.7463379-62.1430664,23.1533203-89.4458008-31.6248779-15.953125-61.2954102-37.1142578-87.708252-63.5273438-133.3933105-133.3930664-133.3933105-349.666748,0-483.0600586,133.3934326-133.3935547,349.666748-133.3935547,483.0603027,0,133.3933105,133.3933105,133.3933105,349.6669922,0,483.0600586-95.3276367,95.3276367-232.9772949,122.5117188-352.4621582,81.5908203-11.2111816,40.8032227-17.838623,67.8422852-18.8244629,71.894043-.0917969.3808594-.2011719.7724609-.3232422,1.1611328ZM549.8114014,919.4018555c-16.4199219,1.9287109-33.1787109,2.9072266-49.8115234,2.9072266-31.4394531,0-62.7910156-3.4707031-93.1845703-10.3164062-2.1552734-.4853516-3.5087891-2.6259766-3.0234375-4.78125s2.625-3.5107422,4.78125-3.0234375c29.8173828,6.7158203,60.578125,10.1210938,91.4267578,10.1210938,16.3222656,0,32.7675781-.9599609,48.8779297-2.8525391,2.1982422-.2597656,4.1816406,1.3125,4.4394531,3.5058594.2578125,2.1943359-1.3115234,4.1816406-3.5058594,4.4394531ZM662.0653076,913.9526367l-13.0270996,4.8364258-16.6518555-44.8671875-18.0026855,6.6748047-4.5048828-12.1381836,49.0322266-18.203125,4.5048828,12.1381836-18.0024414,6.6923828,16.6518555,44.8666992ZM733.848999,878.2788086l-12.2949219-21.1484375-20.4775391,11.9033203,12.295166,21.1479492-11.9204102,6.9360352-30.5241699-52.5,11.9204102-6.9360352,11.7373047,20.1723633,20.4775391-11.9033203-11.7375488-20.171875,11.9204102-6.9365234,30.541748,52.5004883-11.9379883,6.9360352ZM769.5404053,854.0371094l-38.8806152-46.7055664,30.6201172-25.4960938,7.4416504,8.9399414-20.0939941,16.7128906,8.0080566,9.6113281,18.3422852-15.2749023,7.4414062,8.9399414-18.3422852,15.2753906,8.5046387,10.2124023,20.8171387-17.331543,7.4936523,9.0097656-31.3520508,26.1064453ZM864.3634033,755.1186523l-10.8486328-3.0756836-14.5605469,19.2661133,5.8730469,9.6547852-8.8532715,11.7285156-33.9575195-55.9331055,8.1650391-10.8139648,63.0874023,17.3925781-8.9055176,11.7807617ZM895.0272217,706.3828125c-7.0668945,13.5327148-18.4731445,18.159668-29.635498,12.3300781l6.2302246-11.9116211c5.1845703,2.6054688,10.2038574.3222656,13.2971191-5.5942383,2.6403809-5.0800781,2.248291-9.3935547-1.3679199-11.2841797-3.7644043-1.9692383-7.7988281.3398438-13.4714355,7.0581055-9.2019043,11.2578125-17.5583496,14.5253906-26.4025879,9.9160156-9.7768555-5.1064453-11.798584-16.0507812-5.3242188-28.4326172,6.6572266-12.7744141,17.8369141-17.3144531,28.6855469-11.6416016l-6.1518555,11.7631836c-4.8359375-2.5356445-9.5239258-.6708984-12.4604492,4.949707-2.692627,5.1494141-2.1787109,9.4282227,1.3591309,11.2753906,3.3112793,1.7255859,6.8664551-.034668,13.0881348-7.2670898,10.1340332-11.737793,18.1420898-14.7089844,26.6813965-10.2475586,10.1604004,5.2978516,12.1384277,16.3208008,5.4724121,29.0864258ZM914.2757568,661.7944336l-57.4846191-19.7539062,12.3562012-35.9702148,11.8244629,4.0693359-7.8684082,22.9086914,14.3601074,4.9316406,7.1713867-20.8520508,11.5021973,3.9560547-7.1713867,20.8520508,19.7888184,6.7880859-4.4787598,13.0703125ZM916.7918701,539.9389648c-.1142578,0-.2285156-.0048828-.34375-.0146484-2.2011719-.1875-3.8339844-2.1230469-3.6464844-4.3242188,1-11.7548828,1.5068359-23.7314453,1.5068359-35.5996094,0-49.8007812-8.7412109-98.4960938-25.9804688-144.7324219-16.6572266-44.671875-40.7744141-85.8759766-71.6826172-122.4667969-62.2421875-73.6845703-148.4990234-123.6044922-242.8818359-140.5644531-2.1748047-.390625-3.6210938-2.4697266-3.2294922-4.6435547.390625-2.1757812,2.4746094-3.6201172,4.6435547-3.2294922,96.2128906,17.2880859,184.1376953,68.1708984,247.5791016,143.2753906,31.5039062,37.2958984,56.0878906,79.296875,73.0664062,124.8339844,17.5742188,47.1337891,26.4853516,96.7685547,26.4853516,147.5273438,0,12.0927734-.5166016,24.2988281-1.5361328,36.2773438-.1767578,2.0859375-1.9248047,3.6611328-3.9804688,3.6611328Z"/>
        <path class="cls-7" d="M219.9737549,185.4233398c-6.1083984-6.3173828-14.098877-6.1867676-21.0175781.5227051l-12.1730957,11.7897949,19.7714844,20.3989258,12.1730957-11.7897949c6.857666-6.6486816,7.293457-14.6826172,1.2460938-20.9216309Z"/>
        <path class="cls-7" d="M333.2261963,154.0800781c14.8656006-6.9711914,19.8237305-20.1376953,13.1838379-34.3061523-6.6311035-14.142334-19.9282227-18.7607422-34.9421387-11.7111816l-12.355957,5.7858887,21.6186523,46.0869141,12.4956055-5.8554688Z"/>
        <path class="cls-7" d="M93.9381104,441.6420898c15.3013916,3.206543,28.0147705-4.9580078,31.2039795-20.1723633,3.1630859-15.1357422-5.2020264-27.7182617-20.503418-30.9250488-15.3013916-3.206543-28.0147705,4.958252-31.1778564,20.0939941-3.189209,15.2141113,5.1760254,27.796875,20.4772949,31.003418Z"/>
        <path class="cls-4" d="M120.7764893,506.1760254l-20.6340332-.3833008.2612305-14.0466309c.2702637-14.3166504-6.857666-22.6992188-19.614502-22.9433594-12.748291-.2351074-20.1896973,7.8686523-20.4686279,22.1765137l-.3572998,19.2487793,60.7260742,1.1586914.0871582-5.2106934ZM95.3673096,505.7055664l-30.4458008-.5751953.2700195-13.7939453c.2092285-11.6240234,5.5245361-17.4272461,15.510498-17.2355957,10.1428223.1916504,15.1445312,6.1867676,14.9179688,17.810791l-.2526855,13.7939453Z"/>
        <path class="cls-4" d="M92.831543,446.9138184c18.1942139,3.7993164,33.4084473-6.1345215,37.2425537-24.4157715,3.8078613-18.1855469-6.1345215-33.4084473-24.3288574-37.2250977-18.1855469-3.8078613-33.4084473,6.1345215-37.2163086,24.3374023-3.8339844,18.2641602,6.1083984,33.4868164,24.3026123,37.3034668ZM73.4608154,410.6386719c3.1630859-15.1357422,15.8764648-23.3005371,31.1778564-20.0939941,15.3013916,3.2067871,23.6665039,15.7893066,20.503418,30.9250488-3.189209,15.2143555-15.9025879,23.3789062-31.2039795,20.1723633-15.3012695-3.206543-23.6665039-15.7893066-20.4772949-31.003418Z"/>
        <polygon class="cls-4" points="148.2508545 357.40625 108.4117432 317.8286133 139.1363525 320.5297852 164.3713379 322.6733398 166.5411377 318.0290527 119.8179932 274.3034668 117.473999 279.3486328 157.8795166 317.0705566 102.2249756 312.1821289 100.0987549 316.7480469 120.4976807 337.1469727 139.6591797 356.0993652 84.8410645 349.5900879 82.5406494 354.5571289 146.0462646 362.1379395 148.2508545 357.40625"/>
        <polygon class="cls-4" points="208.6109619 256.7888184 204.8031006 253.921875 185.8942871 279.1220703 166.8721924 264.857666 183.8553467 242.2280273 180.0299072 239.3613281 163.055542 261.9821777 144.8699951 248.3452148 163.2037354 223.9118652 159.4567871 221.088623 137.994873 249.6958008 186.5826416 286.1540527 208.6109619 256.7888184"/>
        <path class="cls-4" d="M225.7769775,237.9672852l-15.8937988-16.3994141,11.6677246-11.3017578,27.5004883,5.1586914,4.4963379-4.3569336-27.9973145-5.1672363c5.6552734-7.9033203,5.1848145-17.0004883-1.7775879-24.171875-8.1037598-8.3652344-18.9785156-8.1037598-27.7706299.427002l-16.2860107,15.7805176,42.3227539,43.6645508,3.7380371-3.6335449ZM186.7830811,197.7358398l12.1730957-11.7897949c6.9187012-6.7094727,14.9091797-6.8400879,21.0175781-.5227051,6.0473633,6.2390137,5.6115723,14.2729492-1.2460938,20.9216309l-12.1730957,11.7897949-19.7714844-20.3989258Z"/>
        <polygon class="cls-4" points="300.6455078 176.9536133 297.9180908 173.0236816 272.020874 191.0263672 258.4361572 171.4814453 281.6931152 155.3173828 278.9656982 151.4047852 255.7087402 167.5688477 242.7252197 148.8691406 267.8295898 131.4155273 265.1544189 127.5727539 235.7630615 147.9890137 270.4698486 197.9274902 300.6455078 176.9536133"/>
        <path class="cls-4" d="M335.3261719,158.5500488c17.8631592-8.3649902,23.8145752-24.3024902,15.97229-41.050293-7.8598633-16.7478027-23.9191895-22.3681641-41.7823486-14.0031738l-17.2271729,8.0776367,25.8188477,55.0622559,17.2183838-8.0864258ZM311.4678955,108.0627441c15.013916-7.0495605,28.3110352-2.4311523,34.9421387,11.7111816,6.6398926,14.168457,1.6817627,27.3349609-13.1838379,34.3061523l-12.4956055,5.8554688-21.6186523-46.0869141,12.355957-5.7858887Z"/>
        <path class="cls-4" d="M437.494751,126.230957c11.5283203-2.0651855,17.6715088-9.6025391,15.8937988-19.5187988-1.3244629-7.4240723-6.447998-11.885498-13.9680176-12.5566406,5.7858887-3.0671387,8.4871826-8.661377,7.302124-15.3186035-1.6905518-9.3935547-9.8726807-14.1948242-20.7125244-12.2429199l-23.1437988,4.1477051,10.7180176,59.7763672,23.9104004-4.2871094ZM448.0471191,107.4179687c1.3244629,7.3369141-3.0062256,12.6958008-11.7199707,14.2644043l-18.4470215,3.3024902-4.2435303-23.6577148,18.1071777-3.2416992c8.9663086-1.6120605,14.9702148,1.8996582,16.3033447,9.3325195ZM408.8178711,74.4277344l17.6801758-3.1630859c8.1124268-1.4553223,13.7415771,1.9431152,15.0050049,8.9401855,1.2548828,7.0058594-2.8754883,12.0598145-11.0664062,13.5236816l-17.5930176,3.1630859-4.0257568-22.4638672Z"/>
        <polygon class="cls-4" points="491.4676514 121.1420898 496.6697998 121.0634766 496.2950439 98.5908203 518.645874 59.9628906 512.6595459 60.0585937 493.6025391 93.1796875 485.5772705 80.1176758 473.4564209 60.7124023 467.4787598 60.8168945 491.0930176 98.7739258 491.4676514 121.1420898"/>
        <path class="cls-6" d="M741.5291748,741.5292969c133.3933105-133.3930664,133.3933105-349.666748,0-483.0600586-133.3935547-133.3935547-349.6668701-133.3935547-483.0603027,0-133.3933105,133.3933105-133.3933105,349.6669922,0,483.0600586,26.4128418,26.4130859,56.083374,47.5742188,87.708252,63.5273438-7.4069824,27.3027344-15.0770264,56.9331055-23.1533203,89.4458008-1.5966797,6.4267578.453125,13.1884766,5.3486328,17.6484375,3.3222656,3.0253906,7.6269531,4.6914062,12.1210938,4.6914062,2.0263672,0,4.0253906-.3398438,5.9296875-1.0048828l.9785156-.3398438c6.4394531-2.2246094,18.4257812-6.3662109,22.5175781-19.3222656.1220703-.3886719.2314453-.7802734.3232422-1.1611328.9858398-4.0517578,7.6132812-31.0908203,18.8244629-71.894043,119.4848633,40.9208984,257.1345215,13.7368164,352.4621582-81.5908203ZM340.4923096,898.8422852c13.5477295-54.534668,27.3873291-106.6821289,41.2878418-153.3574219-59.5692139-33.0771484-80.236084-95.0449219-59.2402344-116.5546875,2.1196289-2.1743164,4.1846924-3.668457,6.2193604-4.8535156,18.5645752-10.7832031,33.619751,15.3227539,45.1719971,3.8994141,12.8157959-12.6787109-81.3797607-70.838623-68.0585938-114.1328125.7711182-2.5095215,1.6751709-4.609375,2.6772461-6.4262695,14.3079834-25.9277344,50.6115723,14.8786621,68.8515625,2.8842773,13.7895508-9.0666504-55.380127-58.7045898-49.6987305-125.7524414,1.0587158-12.4824219,4.2370605-21.6101074,8.8879395-28.1540527,23.2614746-32.7548828,84.2445068.2004395,111.3267822,15.2490234,32.5045166,18.0593262-7.8510742-31.3693848,3.4854736-72.3022461,1.2722168-4.6008301,4.078125-10.2561035,8.4001465-15.1662598,11.4780273-13.0444336,34.0270996-20.6689453,69.7512207,11.9638672,22.1066895,20.1943359,29.7857666-73.7441406,85.1855469-59.2880859,1.7927246.4660645,3.4724121.9890137,5.0627441,1.5595703,1.4746094.8193359,2.9799805,1.7341309,4.5114746,2.7709961,47.4353027,32.0622559-18.0439453,99.8552246,11.7155762,103.1228027,45.5837402,5.010498,54.730957,19.9763184,52.8901367,33.5827637-.8342285,6.15625-3.9101562,12.0292969-6.8859863,16.5734863-23.2568359,35.5390625-94.8773193,69.0390625-59.8547363,81.5300293,33.2387695,11.8508301,104.2316895,18.5996094,84.6105957,69.7055664-1.0522461,2.7407227-2.2961426,5.5769043-3.8908691,8.5830078-31.5371094,59.440918-129.5535889,29.3566895-127.2596436,45.7036133,2.9626465,21.1264648,39.3358154,23.6972656,29.6070557,50.0385742-.9191895,2.496582-2.1043701,5.1240234-3.9233398,8.0820312-23.7209473,38.5888672-100.4257812,20.6953125-101.4846191,38.6933594-1.0543213,17.8676758,43.4881592,1.3945312,41.8521729,31.112793-.0130615.2133789.0283203.3789062.0108643.6010742-2.145752,28.0581055-65.4401855,50.6962891-134.1762695,28.0058594,3.0605469-12.1733398,6.164917-24.0849609,9.3061523-35.7788086,8.8554688-32.9814453,17.9787598-64.1894531,27.2260742-93.4023438,14.3647461-45.385498,28.9710693-86.1223145,43.170166-122.4194336,19.4294434-49.6682129,38.0593262-90.8623047,54.1928711-123.552002,31.1646729-63.135498,52.9838867-94.7185059,52.9838867-94.7185059-21.8758545,22.8256836-42.9761963,54.5087891-62.7758789,90.684082-20.4338379,37.3339844-39.4776611,79.4560547-56.5456543,121.6611328-17.0070801,42.0439453-32.0513916,84.135498-44.5577393,121.6000977-12.0401611,36.0751953-21.7233887,67.8237305-28.5374756,91.1020508-7.3696289,25.1743164-11.3955078,40.4536133-11.3955078,40.4536133-22.0566406,74.5942383-35.6413574,129.5776367-37.8393555,138.6137695-1.4638672,4.6357422-7.3457031,6.3613281-12.2602539,8.0820312Z"/>
        <polygon class="cls-4" points="658.9110107 850.2553711 609.8787842 868.4584961 614.383667 880.5966797 632.3863525 873.921875 649.038208 918.7890625 662.0653076 913.9526367 645.4134521 869.0859375 663.4158936 862.3935547 658.9110107 850.2553711"/>
        <polygon class="cls-4" points="703.3248291 825.7788086 715.0623779 845.9506836 694.5848389 857.8540039 682.8475342 837.6816406 670.927124 844.6176758 701.4512939 897.1176758 713.3717041 890.1816406 701.0765381 869.0336914 721.5540771 857.1303711 733.848999 878.2788086 745.7869873 871.3427734 715.2452393 818.8422852 703.3248291 825.7788086"/>
        <polygon class="cls-4" points="772.581665 836.2524414 764.0770264 826.0400391 782.4193115 810.7646484 774.9779053 801.824707 756.6356201 817.0996094 748.6275635 807.4882812 768.7215576 790.7753906 761.2799072 781.8354492 730.65979 807.331543 769.5404053 854.0371094 800.8924561 827.9306641 793.3988037 818.9208984 772.581665 836.2524414"/>
        <path class="cls-4" d="M802.0164795,736.7592773l33.9575195,55.9331055,8.8532715-11.7285156-5.8730469-9.6547852,14.5605469-19.2661133,10.8486328,3.0756836,8.9055176-11.7807617-63.0874023-17.3925781-8.1650391,10.8139648ZM842.7532959,748.2700195l-10.3083496,13.6542969-12.6174316-20.1982422,22.9257812,6.5439453Z"/>
        <path class="cls-4" d="M889.5548096,677.2963867c-8.5393066-4.4614258-16.5473633-1.4902344-26.6813965,10.2475586-6.2216797,7.2324219-9.7768555,8.9926758-13.0881348,7.2670898-3.5378418-1.847168-4.0517578-6.1259766-1.3591309-11.2753906,2.9365234-5.6206055,7.6245117-7.4853516,12.4604492-4.949707l6.1518555-11.7631836c-10.8486328-5.6728516-22.0283203-1.1328125-28.6855469,11.6416016-6.4743652,12.3818359-4.4526367,23.3261719,5.3242188,28.4326172,8.8442383,4.609375,17.2006836,1.3417969,26.4025879-9.9160156,5.6726074-6.7182617,9.7070312-9.0273438,13.4714355-7.0581055,3.6162109,1.890625,4.0083008,6.2041016,1.3679199,11.2841797-3.0932617,5.9165039-8.1125488,8.199707-13.2971191,5.5942383l-6.2302246,11.9116211c11.1623535,5.8295898,22.5686035,1.2026367,29.635498-12.3300781,6.6660156-12.765625,4.6879883-23.7885742-5.4724121-29.0864258Z"/>
        <polygon class="cls-4" points="906.137085 621.0839844 894.6348877 617.1279297 887.463501 637.9799805 873.1033936 633.0483398 880.9718018 610.1396484 869.1473389 606.0703125 856.7911377 642.0405273 914.2757568 661.7944336 918.7545166 648.7241211 898.9656982 641.9360352 906.137085 621.0839844"/>
        <path class="cls-3" d="M475.0826416,498.9907227c17.0679932-42.2050781,36.1118164-84.3271484,56.5456543-121.6611328-30.5024414-22.6557617-59.7915039-71.5092773-71.8251953-93.1542969-4.3220215,4.9101562-7.1279297,10.5654297-8.4001465,15.1662598-11.3365479,40.9328613,29.019043,90.3615723-3.4854736,72.3022461-27.0822754-15.048584-88.0653076-48.0039062-111.3267822-15.2490234,26.052002,33.473877,94.1911621,117.6921387,138.4919434,142.5959473Z"/>
        <path class="cls-2" d="M531.6282959,377.3295898c19.7996826-36.175293,40.9000244-67.8583984,62.7758789-90.684082,0,0-21.8192139,31.5830078-52.9838867,94.7185059,18.8740234,5.1977539,72.6269531,15.8632812,147.4995117-3.4768066,1.8408203-13.6064453-7.3063965-28.5722656-52.8901367-33.5827637-29.7595215-3.2675781,35.7197266-71.0605469-11.7155762-103.1228027-1.5314941-1.0368652-3.0368652-1.9516602-4.5114746-2.7709961-1.590332-.5705566-3.2700195-1.0935059-5.0627441-1.5595703-55.3997803-14.4560547-63.0788574,79.4824219-85.1855469,59.2880859-35.7241211-32.6328125-58.2731934-25.0083008-69.7512207-11.9638672,12.0336914,21.6450195,41.3227539,70.4985352,71.8251953,93.1542969Z"/>
        <path class="cls-5" d="M430.5249023,620.5908203c12.5063477-37.4645996,27.5506592-79.5561523,44.5577393-121.6000977-44.3007812-24.9038086-112.4399414-109.1220703-138.4919434-142.5959473-4.6508789,6.5439453-7.8292236,15.6716309-8.8879395,28.1540527-5.6813965,67.0478516,63.4882812,116.685791,49.6987305,125.7524414-18.2399902,11.9943848-54.5435791-28.8120117-68.8515625-2.8842773,20.7387695,26.6420898,62.9829102,74.78125,121.9749756,113.1738281Z"/>
        <path class="cls-3" d="M541.4202881,381.3640137c-16.1335449,32.6896973-34.7634277,73.8837891-54.1928711,123.552002,20.2353516,8.652832,102.8591309,40.6147461,219.5622559,40.7802734,19.6210938-51.105957-51.3718262-57.8547363-84.6105957-69.7055664-35.022583-12.4909668,36.5979004-45.9909668,59.8547363-81.5300293,2.9758301-4.5441895,6.0517578-10.4172363,6.8859863-16.5734863-74.8725586,19.3400879-128.6254883,8.6745605-147.4995117,3.4768066Z"/>
        <path class="cls-5" d="M444.057251,627.3354492c20.5797119,6.4130859,88.769043,25.5703125,161.1889648,22.6860352,9.7287598-26.3413086-26.6444092-28.9121094-29.6070557-50.0385742-2.2939453-16.3469238,95.7225342,13.7373047,127.2596436-45.7036133,1.5947266-3.0061035,2.838623-5.8422852,3.8908691-8.5830078-116.703125-.1655273-199.3269043-32.1274414-219.5622559-40.7802734-14.1990967,36.2971191-28.8054199,77.0339355-43.170166,122.4194336Z"/>
        <path class="cls-1" d="M444.057251,627.3354492c-9.2473145,29.2128906-18.3706055,60.4208984-27.2260742,93.4023438-3.1412354,11.6938477-6.2456055,23.6054688-9.3061523,35.7788086,68.736084,22.6904297,132.0305176.0522461,134.1762695-28.0058594.0174561-.222168-.0239258-.3876953-.0108643-.6010742,1.6359863-29.7182617-42.9064941-13.2451172-41.8521729-31.112793,1.0588379-17.9980469,77.7636719-.1044922,101.4846191-38.6933594,1.8189697-2.9580078,3.0041504-5.5854492,3.9233398-8.0820312-72.4199219,2.8842773-140.6092529-16.2729492-161.1889648-22.6860352Z"/>
        <path class="cls-1" d="M390.5919189,752.1464844s4.0258789-15.2792969,11.3955078-40.4536133c6.8140869-23.2783203,16.4973145-55.0268555,28.5374756-91.1020508-58.9920654-38.3925781-101.2362061-86.5317383-121.9749756-113.1738281-1.0020752,1.8168945-1.9061279,3.916748-2.6772461,6.4262695-13.321167,43.2941895,80.8743896,101.4541016,68.0585938,114.1328125-11.5522461,11.4233398-26.6074219-14.6826172-45.1719971-3.8994141-2.034668,1.1850586-4.0997314,2.6791992-6.2193604,4.8535156-20.9958496,21.5097656-.3289795,83.4775391,59.2402344,116.5546875-13.9005127,46.675293-27.7401123,98.8227539-41.2878418,153.3574219,4.9145508-1.7207031,10.7963867-3.4462891,12.2602539-8.0820312,2.197998-9.0361328,15.7827148-64.0195312,37.8393555-138.6137695Z"/>
        <path class="cls-4" d="M548.8778076,911.456543c-16.1103516,1.8925781-32.5556641,2.8525391-48.8779297,2.8525391-30.8486328,0-61.609375-3.4052734-91.4267578-10.1210938-2.15625-.4873047-4.2958984.8681641-4.78125,3.0234375s.8681641,4.2958984,3.0234375,4.78125c30.3935547,6.8457031,61.7451172,10.3164062,93.1845703,10.3164062,16.6328125,0,33.3916016-.9785156,49.8115234-2.9072266,2.1943359-.2578125,3.7636719-2.2451172,3.5058594-4.4394531-.2578125-2.1933594-2.2412109-3.765625-4.4394531-3.5058594Z"/>
        <path class="cls-4" d="M288.5418701,856.3569336c-102.1777344-60.7617188-173.453125-162.2744141-195.5488281-278.5087891-.4121094-2.1699219-2.5126953-3.5947266-4.6767578-3.1826172-2.1699219.4130859-3.5947266,2.5068359-3.1826172,4.6767578,22.5234375,118.4833984,95.1728516,221.9580078,199.3183594,283.8916016.6416016.3808594,1.3457031.5625,2.0410156.5625,1.3642578,0,2.6943359-.6992188,3.4423828-1.9560547,1.1289062-1.8994141.5048828-4.3535156-1.3935547-5.4833984Z"/>
        <path class="cls-4" d="M895.8231201,352.4731445c-16.9785156-45.5371094-41.5625-87.5380859-73.0664062-124.8339844-63.4414062-75.1044922-151.3662109-125.9873047-247.5791016-143.2753906-2.1689453-.390625-4.2529297,1.0537109-4.6435547,3.2294922-.3916016,2.1738281,1.0546875,4.2529297,3.2294922,4.6435547,94.3828125,16.9599609,180.6396484,66.8798828,242.8818359,140.5644531,30.9082031,36.5908203,55.0253906,77.7949219,71.6826172,122.4667969,17.2392578,46.2363281,25.9804688,94.9316406,25.9804688,144.7324219,0,11.8681641-.5068359,23.8447266-1.5068359,35.5996094-.1875,2.2011719,1.4453125,4.1367188,3.6464844,4.3242188.1152344.0097656.2294922.0146484.34375.0146484,2.0556641,0,3.8037109-1.5751953,3.9804688-3.6611328,1.0195312-11.9785156,1.5361328-24.1845703,1.5361328-36.2773438,0-50.7587891-8.9111328-100.3935547-26.4853516-147.5273438Z"/>
      </g>
    </g>
  </g>
</svg>