<?xml version="1.0" encoding="utf-8"?>
<!-- Generator: Adobe Illustrator 19.2.1, SVG Export Plug-In . SVG Version: 6.00 Build 0)  -->
<svg version="1.1" id="layer" xmlns="http://www.w3.org/2000/svg" xmlns:xlink="http://www.w3.org/1999/xlink" x="0px" y="0px"
	 viewBox="0 0 652 652" style="enable-background:new 0 0 652 652;" xml:space="preserve" width="250" height="168">
<style type="text/css">
	.st0{fill:#FF5D18;}
</style>
<path class="st0" d="M572.5,257.4v-57L458.2,251v-72.9l-115.6,51.3v115.4l114.3-50.7v33.4l114.2-50.6v20.3l54.9-24.4v-39.1
	L572.5,257.4"/>
<path d="M124,444.8l18.6-62.1h20.9L133.7,474H115l-20.4-62l-20.5,62H55.5L26,382.6h21.4l18.3,62.1l20.2-62.5h17.8L124,444.8
	 M263.5,474h20.8V344.8h-20.8V474z M296.8,474h20.8V344.8h-20.8L296.8,474z M447.3,474H426V384h21.3v20.3
	c5.8-13.5,16.5-22.7,32.9-22v21.8h-1.2c-18.6,0-31.7,11.8-31.7,35.6V474z M594.3,382.3c19.7,0,31.7,12.4,31.7,34.4V474h-20.7v-51
	c0-14.3-6.7-21.9-18.3-21.9c-11.3,0-19.3,7.8-19.3,22.3V474h-20.7v-51.2c0-14-6.8-21.8-18.3-21.8c-11.5,0-19.4,8.5-19.4,22.4V474
	h-20.7v-89.8h20.7v13.6c5.8-8,13.7-15.5,27.6-15.5c13,0,22.1,6.3,26.9,15.8C571,388.6,580.6,382.3,594.3,382.3 M393.1,440.1
	c0,11.1-10.4,18.6-24.4,18.6c-9.9,0-17.7-4.7-17.7-13.1v-0.3c0-9,7.8-14.2,21-14.2c8.2,0,15.7,1.5,21.1,3.5L393.1,440.1z
	 M373.1,382.3c-11.3,0-19.7,1.7-27.4,4.4v18.5c7.7-2.9,15-4.8,24.5-4.8c14.6,0,22.6,6.7,22.6,18.9v2.2c-7.1-2.2-14.3-3.7-25.4-3.7
	c-21.4,0-37.2,9.4-37.2,28.5v0.3c0,17.8,15.3,27.3,32.7,27.3c13.9,0,23.5-5.5,29.8-12.7v10.9h20.9v-52.5
	C413.5,396,400.3,382.3,373.1,382.3L373.1,382.3z M226.5,440.1c0,11.1-10.4,18.6-24.4,18.6c-9.9,0-17.7-4.7-17.7-13.1v-0.3
	c0-9,7.8-14.2,21.1-14.2c8.2,0,15.7,1.5,21.1,3.5V440.1z M206.5,382.3c-11.9,0-20.6,1.9-28.7,4.9v18.5c8.2-3.2,15.7-5.3,25.8-5.3
	c14.6,0,22.6,6.7,22.6,18.9v2.2c-7.1-2.2-14.3-3.7-25.4-3.7c-21.4,0-37.2,9.4-37.2,28.5v0.3c0,17.8,15.3,27.3,32.7,27.3
	c13.9,0,23.5-5.5,29.8-12.7v10.9h20.9v-52.5C246.8,396,233.6,382.3,206.5,382.3L206.5,382.3z"/>
</svg>
