<?xml version="1.0" encoding="UTF-8" standalone="no"?>
<!-- Created with Inkscape (http://www.inkscape.org/) -->

<svg
   width="356.2738mm"
   height="69.961739mm"
   viewBox="0 0 356.2738 69.961737"
   version="1.1"
   id="svg5"
   xml:space="preserve"
   inkscape:export-filename="bitmap.svg"
   inkscape:export-xdpi="42.776089"
   inkscape:export-ydpi="42.776089"
   xmlns:inkscape="http://www.inkscape.org/namespaces/inkscape"
   xmlns:sodipodi="http://sodipodi.sourceforge.net/DTD/sodipodi-0.dtd"
   xmlns="http://www.w3.org/2000/svg"
   xmlns:svg="http://www.w3.org/2000/svg"><sodipodi:namedview
     id="namedview7"
     pagecolor="#ffffff"
     bordercolor="#000000"
     borderopacity="0.25"
     inkscape:showpageshadow="2"
     inkscape:pageopacity="0.0"
     inkscape:pagecheckerboard="0"
     inkscape:deskcolor="#d1d1d1"
     inkscape:document-units="mm"
     showgrid="false" /><defs
     id="defs2" /><g
     inkscape:label="Layer 1"
     inkscape:groupmode="layer"
     id="layer1"
     transform="translate(132.28914,-2.820298)"><path
       style="fill:#030a47;stroke-width:0.132291"
       d="m -108.02196,68.173706 c -8.16142,-2.52821 -14.99139,-4.696632 -15.17772,-4.818717 -0.46441,-0.30429 -0.78617,-0.97445 -0.77231,-1.60854 0.006,-0.29104 1.14496,-4.15747 2.53022,-8.592065 2.33853,-7.486293 2.55092,-8.095167 2.96988,-8.514132 0.87735,-0.877351 -0.017,-1.092684 16.63472,4.005087 8.246862,2.524699 15.155585,4.70521 15.352721,4.845585 0.449553,0.32011 0.839595,1.297035 0.718885,1.80057 -0.309148,1.28957 -5.04285,16.190982 -5.251944,16.532812 -0.295041,0.48232 -1.207356,0.97373 -1.777329,0.95732 -0.2135,-0.006 -7.065706,-2.0797 -15.227123,-4.60792 z m 20.460457,1.64147 c -0.09779,-0.11782 -0.125239,-0.33739 -0.06995,-0.55946 0.237314,-0.95316 4.224811,-13.638602 4.385726,-13.952322 0.266678,-0.519915 1.032127,-1.222215 1.604422,-1.472055 0.676811,-0.29547 14.562452,-3.43313 14.796222,-3.343421 0.3485,0.133732 0.18811,0.415704 -0.77257,1.358146 -1.68634,1.654325 -19.28679,17.897542 -19.539635,18.032862 -0.176987,0.0947 -0.287108,0.0774 -0.404214,-0.0637 z M 73.086648,59.641824 c -2.26162,-0.43266 -3.64456,-1.135255 -5.07663,-2.57915 -1.63078,-1.64424 -2.63696,-4.046915 -3.02457,-7.222474 -0.0941,-0.770861 -0.14547,-4.817442 -0.14571,-11.477786 v -10.28716 l 5.39089,0.03455 5.39088,0.03456 0.0662,9.392708 0.0661,9.392708 0.31661,0.78593 c 0.44629,1.107849 1.34142,1.975309 2.33696,2.26472 1.16566,0.338866 2.59682,0.218384 3.5131,-0.295749 0.88972,-0.499237 1.61649,-1.426488 2.00371,-2.556463 0.29061,-0.848036 0.29559,-0.984887 0.36162,-9.921875 l 0.067,-9.061979 5.39144,-0.03456 5.39143,-0.03456 -0.0336,15.38039 -0.034,15.38039 -5.15937,0.03485 c -4.73293,0.032 -5.17304,0.01625 -5.32474,-0.19065 -0.10806,-0.14736 -0.16537,-0.718425 -0.16537,-1.64764 0,-0.782165 -0.0558,-1.45662 -0.12406,-1.498795 -0.0682,-0.04215 -0.30209,0.182075 -0.51967,0.498315 -1.0599,1.540535 -3.07744,2.851845 -5.24324,3.40788 -1.37839,0.35388 -4.11902,0.455455 -5.44492,0.201805 z m 78.329962,0.004 c -2.90068,-0.47673 -5.15843,-1.62081 -7.30053,-3.69944 -3.0489,-2.95855 -4.66584,-7.099871 -4.66343,-11.944078 0.002,-4.842071 1.65723,-8.809981 4.97957,-11.939934 2.04421,-1.925841 4.44252,-3.208869 6.97525,-3.731572 1.53177,-0.316126 4.05656,-0.335733 5.47941,-0.04255 2.94934,0.607724 5.58542,2.322737 7.48105,4.86712 0.62678,0.841281 0.68467,0.886261 0.76622,0.595312 0.0485,-0.173101 0.0942,-5.480379 0.10141,-11.793951 l 0.0133,-11.47922 2.48047,0.03599 2.48047,0.03599 v 24.143228 24.143225 l -2.32951,0.03605 c -1.8248,0.02825 -2.36152,-0.0025 -2.47724,-0.141955 -0.093,-0.112015 -0.1612,-1.03274 -0.18404,-2.48345 -0.0256,-1.624575 -0.0811,-2.305435 -0.18802,-2.305435 -0.0835,0 -0.41699,0.357185 -0.74118,0.79375 -1.71662,2.31166 -4.28974,4.006105 -7.13801,4.7005 -1.42662,0.347805 -4.26542,0.45196 -5.73508,0.21042 z m 6.22536,-4.65431 c 0.5109,-0.101725 1.46508,-0.450465 2.12843,-0.777915 2.57682,-1.271985 4.49841,-3.736393 5.37006,-6.887026 0.25296,-0.914305 0.29237,-1.382398 0.28959,-3.439583 -0.003,-2.035073 -0.0454,-2.535107 -0.29348,-3.439583 -0.59033,-2.152584 -2.01682,-4.442287 -3.52585,-5.659515 -0.94599,-0.763065 -2.58109,-1.592636 -3.77031,-1.912883 -1.20695,-0.325021 -4.35036,-0.31553 -5.55625,0.01677 -2.59088,0.713961 -4.71311,2.355497 -6.12764,4.739686 -1.05684,1.781282 -1.65579,4.643452 -1.50102,7.172815 0.44425,7.260844 5.95859,11.586549 12.98647,10.187229 z m 37.30625,4.70249 c -1.2653,-0.190705 -3.2663,-0.896975 -4.36728,-1.54146 -1.23265,-0.72156 -2.92978,-2.312605 -3.6736,-3.443965 -0.30143,-0.458465 -0.58666,-0.83357 -0.63385,-0.83357 -0.14621,0 -0.2526,1.31119 -0.2538,3.127775 -0.001,1.462735 -0.0343,1.751455 -0.21041,1.81901 -0.41095,0.157695 -4.49164,0.08899 -4.65908,-0.07845 -0.12231,-0.122315 -0.15828,-5.64071 -0.15672,-24.04401 0.002,-13.136893 0.0501,-23.961058 0.10893,-24.053699 0.0816,-0.128641 0.68287,-0.159899 2.54459,-0.132292 l 2.43768,0.03615 0.0338,11.740885 c 0.0194,6.749817 0.0839,11.740885 0.15158,11.740885 0.0648,0 0.30106,-0.285607 0.52506,-0.634681 0.48088,-0.749392 2.33291,-2.578196 3.22401,-3.183587 0.94873,-0.644542 2.68682,-1.436053 3.87077,-1.762711 0.92091,-0.254084 1.39333,-0.292517 3.63803,-0.295976 2.28764,-0.0035 2.70699,0.03055 3.70416,0.300926 2.26351,0.613749 4.23836,1.748095 5.98418,3.437291 1.90539,1.843608 3.35834,4.421642 4.09166,7.260079 0.35057,1.356951 0.41193,1.862267 0.47261,3.892489 0.0772,2.581271 -0.0507,3.830893 -0.57886,5.658016 -0.7571,2.61916 -2.1713,4.956445 -4.2099,6.95784 -2.07283,2.03499 -4.31569,3.2718 -6.97868,3.84835 -1.15222,0.249455 -3.95667,0.35173 -5.06486,0.184705 z m 3.83646,-4.70249 c 0.52304,-0.104145 1.47282,-0.45435 2.18247,-0.804745 1.04633,-0.51662 1.44453,-0.81024 2.38125,-1.7559 2.40193,-2.424825 3.42301,-5.283674 3.2642,-9.139192 -0.1055,-2.561494 -0.6316,-4.30867 -1.87859,-6.238898 -1.98226,-3.068348 -5.17245,-4.629333 -9.05818,-4.432243 -1.79443,0.09101 -2.72978,0.318979 -4.16719,1.015634 -2.63697,1.278031 -4.59924,3.810676 -5.37976,6.943528 -0.24604,0.987539 -0.29627,1.551668 -0.29451,3.307292 0.003,3.102996 0.45153,4.770462 1.85609,6.901932 2.36779,3.593192 6.42878,5.131527 11.09422,4.202592 z m -232.942073,3.82388 c -0.0493,-0.04935 -0.0897,-6.98539 -0.0897,-15.413474 V 28.078221 h 5.35836 5.35837 l -0.0336,15.378906 -0.0336,15.378907 -5.23505,0.03455 c -2.87928,0.019 -5.27541,-0.0058 -5.32474,-0.05513 z m 18.12396,0 c -0.0494,-0.04935 -0.0897,-6.98539 -0.0897,-15.413474 V 28.078221 h 5.21136 c 4.6300502,0 5.2203302,0.02334 5.2916702,0.209258 0.0441,0.115091 0.0803,0.855718 0.0803,1.645838 0,0.790119 0.0558,1.471084 0.12406,1.513256 0.0682,0.04217 0.30209,-0.18207 0.51967,-0.498315 0.57004,-0.828524 1.87462,-1.99231 2.83031,-2.524842 3.84291,-2.141369 9.42928,-1.695729 12.4457798,0.992835 1.81512,1.617784 2.866761,3.746312 3.489391,7.062491 0.29689,1.581266 0.41888,22.029667 0.13282,22.267062 -0.14437,0.11982 -1.48778,0.150865 -5.4022508,0.124855 l -5.21009,-0.0346 -0.0695,-9.260418 c -0.0686,-9.142012 -0.0733,-9.27167 -0.36516,-10.140596 -0.37619,-1.11985 -1.23009,-2.108952 -2.11565,-2.450652 -0.92741,-0.357849 -2.66506,-0.323899 -3.53511,0.06907 -1.18615,0.535735 -1.96566,1.508636 -2.40142,2.997181 -0.20806,0.710752 -0.2399,1.734379 -0.30453,9.789583 l -0.0722,8.995834 -5.2350502,0.03455 c -2.87928,0.019 -5.27541,-0.0058 -5.32474,-0.05513 z m 40.453281,-0.07867 c -0.0342,-0.09095 -0.077,-5.076695 -0.0951,-11.079427 l -0.0328,-10.914062 -2.41255,-0.03605 c -2.3711,-0.03543 -2.41378,-0.04111 -2.48444,-0.33073 -0.0395,-0.162073 -0.0552,-2.080615 -0.0349,-4.263428 l 0.037,-3.96875 2.31511,-0.06615 c 1.2733,-0.03638 2.38951,-0.114307 2.48047,-0.173172 0.12185,-0.07887 0.16536,-0.712851 0.16536,-2.409773 0,-3.774959 0.48727,-6.346346 1.65394,-8.727992 1.707,-3.484681 4.66276,-5.659936 8.63113,-6.351961 1.48106,-0.258277 4.75743,-0.254834 6.38368,0.0067 1.6705,0.268657 2.78566,0.588587 2.87647,0.825224 0.0934,0.243391 -0.37532,8.434886 -0.49361,8.626261 -0.0601,0.09727 -0.35254,0.06947 -0.93746,-0.0891 -0.56169,-0.152281 -1.34829,-0.231914 -2.31863,-0.234734 -1.42112,-0.0042 -1.49786,0.01069 -2.37628,0.458752 -1.09785,0.559999 -1.7808,1.382003 -2.19827,2.645833 -0.23104,0.699406 -0.29486,1.273466 -0.3419,3.075781 -0.0318,1.218737 -0.0369,2.228319 -0.0114,2.243517 0.0255,0.0152 1.65376,0.05985 3.61829,0.09922 l 3.57187,0.07159 v 4.233333 4.233333 l -3.57187,0.06615 -3.57188,0.06615 -0.0339,10.901439 c -0.0242,7.786623 -0.076,10.952293 -0.18157,11.079423 -0.20913,0.25199 -10.54219,0.26425 -10.63692,0.0126 z m 22.78213,0.07867 c -0.0494,-0.04935 -0.0897,-10.94422 -0.0897,-24.21087 V 10.48343 h 5.35817 5.35817 l -0.0334,24.176301 -0.0335,24.176303 -5.23505,0.03455 c -2.87927,0.019 -5.2754,-0.0058 -5.32474,-0.05513 z m 53.091562,-0.11733 c 0,-0.112215 2.44078,-3.656865 5.42396,-7.876999 2.98317,-4.220134 5.42396,-7.756704 5.42396,-7.859044 0,-0.102339 -2.29468,-3.406016 -5.09929,-7.341502 -2.80461,-3.935487 -5.13293,-7.243105 -5.17405,-7.350264 -0.0653,-0.170128 0.68539,-0.190469 5.9197,-0.160405 l 5.99446,0.03443 2.38767,3.997607 c 1.3132,2.198683 2.45687,3.999504 2.54145,4.001823 0.0846,0.0023 1.12082,-1.647776 2.30274,-3.666878 1.18192,-2.019101 2.26273,-3.834804 2.40182,-4.034895 l 0.25289,-0.363803 h 5.61338 c 3.22125,0 5.61339,0.05053 5.61339,0.118577 0,0.06522 -2.32317,3.411772 -5.16262,7.436787 -2.83942,4.025015 -5.13826,7.381659 -5.10849,7.459208 0.0297,0.07755 2.50175,3.57543 5.49333,7.773068 2.99158,4.19764 5.43924,7.723025 5.43924,7.834195 0,0.178265 -0.69247,0.202125 -5.86647,0.202125 -5.42327,0 -5.88148,-0.0175 -6.06509,-0.23151 -0.10923,-0.12733 -1.37543,-2.183845 -2.81379,-4.57003 -1.43835,-2.38619 -2.68278,-4.31787 -2.7654,-4.292627 -0.0826,0.02524 -1.31105,1.984027 -2.72988,4.352852 -1.41882,2.36883 -2.66139,4.40469 -2.76124,4.524135 -0.16305,0.19503 -0.74659,0.21718 -5.72161,0.21718 -4.90376,0 -5.54006,-0.02345 -5.54006,-0.20403 z M -126.0552,57.810689 c -0.17593,-0.421225 -6.13273,-26.553043 -6.14431,-26.954428 -0.007,-0.23726 0.0676,-0.341765 0.26349,-0.369778 0.36767,-0.05258 10.14178,10.456524 10.55618,11.349986 0.20156,0.434542 0.27356,0.845399 0.26665,1.521354 -0.008,0.810793 -0.26695,1.749248 -2.07831,7.540625 -1.13785,3.638021 -2.12785,6.748526 -2.19999,6.912241 -0.0721,0.16371 -0.22301,0.297655 -0.33528,0.297655 -0.11226,0 -0.26005,-0.133945 -0.32843,-0.297655 z m 43.428865,-6.973032 c -0.232939,-0.142031 -0.516873,-0.43875 -0.630964,-0.659377 -0.281143,-0.543674 -7.110253,-30.220541 -7.118781,-30.935678 -0.0072,-0.602063 0.257151,-1.076635 0.839257,-1.506781 0.444225,-0.328259 16.96522,-4.119051 17.5548,-4.028002 0.60912,0.09407 1.139,0.512587 1.39304,1.100274 0.2773,0.641487 7.10544,30.313005 7.10544,30.87651 0,0.563755 -0.43709,1.238111 -0.9612,1.482957 -0.6073,0.28371 -16.598319,3.929429 -17.232825,3.928831 -0.288883,-2.65e-4 -0.715828,-0.116701 -0.948767,-0.258734 z M -101.2982,46.333666 c -10.4028,-3.210642 -14.15128,-4.419877 -14.38672,-4.641066 -0.33967,-0.319104 -0.39908,-0.64884 -0.18796,-1.043318 0.20752,-0.387755 21.683491,-20.293849 22.073587,-20.460025 0.43139,-0.183766 0.858811,-0.04162 1.13296,0.376783 0.197153,0.300895 6.825503,28.737074 6.825503,29.281986 0,0.400581 -0.540596,0.85424 -1.000714,0.839782 -0.213592,-0.0067 -6.71909,-1.966075 -14.456656,-4.354142 z m -18.63806,-6.845289 c -0.23269,-0.127331 -2.45881,-2.434167 -4.94693,-5.126302 -7.41018,-8.017773 -7.23857,-7.822512 -7.33724,-8.348481 -0.21297,-1.135203 -0.67792,-0.653911 11.68682,-12.097444 6.31152,-5.8412826 11.6541,-10.729444 11.87241,-10.862581 0.54351,-0.331455 1.25354,-0.307975 1.79951,0.05951 0.48074,0.323583 11.251307,11.870006 11.832672,12.685037 0.433401,0.607594 0.476825,1.558598 0.095,2.080405 -0.472992,0.646391 -22.986402,21.470072 -23.413232,21.655966 -0.57018,0.248327 -1.07786,0.233597 -1.589,-0.04611 z M -30.482253,23.00781 c -1.04228,-0.267142 -1.86906,-0.723944 -2.69601,-1.489553 -2.67883,-2.480122 -2.363,-6.752204 0.64782,-8.762753 1.534,-1.024364 3.53954,-1.351803 5.36624,-0.876133 3.90352,1.016471 5.55784,5.669542 3.1715,8.920394 -0.59049,0.804404 -1.68773,1.615897 -2.69799,1.99537 -0.92977,0.349241 -2.84057,0.456421 -3.79156,0.212675 z M 210.7192,17.148335 c -0.0519,-0.05193 -0.0953,-1.409068 -0.0964,-3.01586 -0.001,-1.606793 -0.0476,-2.993116 -0.10327,-3.080718 -0.0612,-0.09637 -0.51764,-0.174745 -1.15552,-0.198438 l -1.05429,-0.03916 V 10.218847 9.6235344 h 2.97656 2.97657 v 0.5953126 0.595312 l -1.09141,0.03842 c -0.60027,0.02114 -1.10352,0.0509 -1.11833,0.06615 -0.0148,0.01525 -0.0595,1.426707 -0.0992,3.136577 l -0.0723,3.108854 -0.53397,0.0393 c -0.29368,0.02161 -0.57645,-0.0032 -0.62839,-0.05512 z m 5.03359,-0.07661 c -0.0735,-0.194894 0.26694,-7.0898766 0.36317,-7.3562786 0.0424,-0.11738 0.26401,-0.15974 0.69211,-0.132292 l 0.62974,0.04038 1.12223,2.2827816 c 0.61722,1.25553 1.18276,2.263297 1.25677,2.239481 0.074,-0.02381 0.64055,-1.051067 1.25902,-2.282781 l 1.12448,-2.2394816 0.58021,-0.04156 c 0.31912,-0.02285 0.63331,0.01154 0.69821,0.07645 0.0845,0.08452 0.48191,5.9539256 0.50594,7.4726606 0.003,0.173884 -1.19319,0.110909 -1.25615,-0.06615 -0.0324,-0.09095 -0.10489,-1.232118 -0.16121,-2.535927 -0.0635,-1.470838 -0.15588,-2.388256 -0.24329,-2.417179 -0.0775,-0.02564 -0.55372,0.802989 -1.05833,1.841396 l -0.91747,1.888012 -0.49141,0.04078 -0.4914,0.04078 -1.00864,-2.013922 c -0.73016,-1.457887 -1.04136,-1.962236 -1.12714,-1.826717 -0.0652,0.102963 -0.12681,0.871815 -0.13696,1.70856 -0.0102,0.836745 -0.0557,1.938073 -0.10124,2.447396 l -0.0828,0.926041 -0.54548,0.03986 c -0.35704,0.02609 -0.5679,-0.01961 -0.61037,-0.132292 z M -91.587869,15.180826 c -0.286833,-0.10218 -0.673786,-0.297448 -0.859895,-0.433928 -0.527298,-0.386686 -10.182946,-10.781119 -10.273846,-11.059931 -0.0976,-0.299295 0.13809,-0.470946 0.52433,-0.381907 0.72036,0.16606 25.866117,7.868121 26.245247,8.038831 0.48743,0.21947 0.55564,0.518173 0.16596,0.726723 -0.43702,0.233886 -14.163871,3.308065 -14.743231,3.301801 -0.295375,-0.0032 -0.77173,-0.08941 -1.058565,-0.191589 z"
       id="path395" /></g></svg>
